<svg width="776" height="204" viewBox="0 0 776 204" fill="none" xmlns="http://www.w3.org/2000/svg">
<path d="M91.172 49.3005C91.172 73.8829 70.7624 93.8109 45.586 93.8109C20.4095 93.8109 0 73.8829 0 49.3005C0 24.718 20.4095 4.79004 45.586 4.79004C70.7624 4.79004 91.172 24.718 91.172 49.3005Z" fill="url(#paint0_linear_280_982)"/>
<path d="M151 99.641C151 115.059 138.199 127.558 122.408 127.558C106.618 127.558 93.8166 115.059 93.8166 99.641C93.8166 84.2228 106.618 71.7239 122.408 71.7239C138.199 71.7239 151 84.2228 151 99.641Z" fill="url(#paint1_linear_280_982)"/>
<path d="M102.655 149.197C102.655 158.361 95.046 165.79 85.6603 165.79C76.2746 165.79 68.666 158.361 68.666 149.197C68.666 140.033 76.2746 132.603 85.6603 132.603C95.046 132.603 102.655 140.033 102.655 149.197Z" fill="url(#paint2_linear_280_982)"/>
<path d="M713.474 160.532C696.183 160.532 681.596 155.391 669.713 145.107C657.83 134.748 651.889 120.618 651.889 102.718C651.889 84.5127 657.906 70.1162 669.941 59.5283C682.053 48.8643 696.906 43.5322 714.502 43.5322C731.26 43.5322 745.694 47.9502 757.806 56.7861C769.917 65.5459 775.973 78.6855 775.973 96.2051C775.973 101.08 772.126 103.518 764.433 103.518H674.969C675.121 114.791 678.549 124.998 685.252 134.139C691.955 143.279 701.4 147.85 713.588 147.85C722.348 147.85 730.46 145.488 737.925 140.766C745.771 135.738 750.036 129.797 750.722 122.941C751.103 118.98 754.873 117 762.033 117C769.879 117 773.802 119.095 773.802 123.284C773.802 125.417 773.154 128.007 771.859 131.054C769.041 137.757 763.671 143.698 755.749 148.878C743.866 156.647 729.774 160.532 713.474 160.532ZM752.55 90.835C750.112 67.7549 737.43 56.2148 714.502 56.2148C694.088 56.2148 681.367 67.7549 676.34 90.835H752.55Z" fill="url(#paint3_linear_280_982)"/>
<path d="M625.952 160.532C618.183 160.532 614.298 158.399 614.298 154.134V6.39844C614.298 2.13281 618.183 0 625.952 0C633.646 0 637.492 2.13281 637.492 6.39844V154.134C637.492 158.399 633.646 160.532 625.952 160.532Z" fill="url(#paint4_linear_280_982)"/>
<path d="M594.303 154.02C594.303 171.234 588.704 183.765 577.507 191.61C566.386 199.532 552.903 203.493 537.06 203.493C527.919 203.493 518.359 201.932 508.381 198.809C498.479 195.686 490.823 190.239 485.415 182.47C484.882 181.708 484.615 180.946 484.615 180.185C484.615 175.995 488.462 173.9 496.155 173.9C501.563 173.9 505.182 175.233 507.01 177.899C512.875 186.431 522.815 190.696 536.831 190.696C559.683 190.696 571.108 178.052 571.108 152.763V146.593C563.644 155.505 553.094 159.961 539.459 159.961C502.896 159.961 484.615 142.822 484.615 108.545V49.3594C484.615 45.0938 488.5 42.9609 496.27 42.9609C503.963 42.9609 507.81 45.0938 507.81 49.3594V108.545C507.81 117.762 510.438 126.521 515.693 134.824C520.949 143.127 528.871 147.278 539.459 147.278C549.666 147.278 557.474 143.127 562.882 134.824C568.366 126.521 571.108 117.876 571.108 108.888V49.3594C571.108 45.0938 574.955 42.9609 582.648 42.9609C590.418 42.9609 594.303 45.0938 594.303 49.3594V154.02Z" fill="url(#paint5_linear_280_982)"/>
<path d="M458.679 160.532C455.251 160.532 452.471 159.885 450.338 158.59C445.006 155.467 441.654 151.392 440.283 146.364C435.408 152.077 428.857 155.886 420.631 157.79C412.48 159.618 405.13 160.532 398.579 160.532C388.144 160.532 377.556 158.057 366.815 153.105C356.151 148.078 350.819 139.471 350.819 127.283C350.819 113.42 356.075 104.622 366.587 100.89C377.099 97.1572 387.991 95.291 399.265 95.291C401.702 95.291 404.673 95.3672 408.177 95.5195C411.757 95.6719 415.108 95.748 418.231 95.748C426.839 95.748 432.971 94.7578 436.627 92.7773V81.9229C436.627 64.7842 426.687 56.2148 406.806 56.2148C399.493 56.2148 392.98 58.043 387.268 61.6992C380.641 65.9648 377.327 71.0684 377.327 77.0098C377.327 81.1992 373.442 83.2939 365.673 83.2939C358.056 83.2939 354.247 81.1992 354.247 77.0098C354.247 68.0977 359.351 60.252 369.558 53.4727C379.688 46.8457 392.104 43.5322 406.806 43.5322C418.612 43.5322 430.381 46.4268 442.111 52.2158C453.842 57.9287 459.707 67.8311 459.707 81.9229V131.168C459.707 140.766 462.183 146.974 467.134 149.792C469.267 151.011 470.333 152.458 470.333 154.134C470.333 156.038 469.152 157.6 466.791 158.818C464.734 159.961 462.03 160.532 458.679 160.532ZM398.579 147.85C407.187 147.85 415.68 145.298 424.059 140.194C432.438 135.015 436.627 127.702 436.627 118.257V107.288C432.285 108.05 426.953 108.431 420.631 108.431C417.127 108.431 413.585 108.354 410.005 108.202C406.425 107.974 402.845 107.859 399.265 107.859C382.431 107.859 374.014 114.334 374.014 127.283C374.014 140.994 382.202 147.85 398.579 147.85Z" fill="url(#paint6_linear_280_982)"/>
<path d="M269.468 160.418C254.386 160.723 240.446 157.371 227.649 150.363C214.929 143.355 206.397 132.158 202.056 116.771C201.827 115.629 201.713 115.058 201.713 115.058C201.713 110.868 205.598 108.773 213.367 108.773C220.07 108.773 223.879 110.602 224.793 114.258C230.734 136.576 245.702 147.735 269.696 147.735C279.446 147.735 289.158 144.841 298.832 139.052C308.506 133.187 313.343 124.693 313.343 113.572C313.343 105.879 308.544 99.8232 298.946 95.4053C291.786 92.0537 282.684 89.8066 271.639 88.6641C264.402 87.9023 256.976 86.7598 249.358 85.2363C241.741 83.7129 234.657 81.2754 228.106 77.9238C213.101 70.0781 205.598 58.5 205.598 43.1895C205.598 27.6504 213.101 16.5674 228.106 9.94043C243.188 3.31348 257.166 0 270.039 0C283.217 0 295.823 2.9707 307.858 8.91211C319.894 14.8535 327.777 24.5273 331.51 37.9336C331.814 39 331.967 39.7617 331.967 40.2188C331.967 44.4082 328.158 46.5029 320.541 46.5029C313.762 46.5029 309.915 44.6748 309.001 41.0186C304.354 22.2041 291.367 12.7969 270.039 12.7969C261.051 12.7969 251.91 15.2344 242.617 20.1094C233.4 24.9082 228.792 32.5635 228.792 43.0752C228.792 50.4639 234.124 56.4814 244.788 61.1279C252.71 64.4795 262.574 66.7646 274.381 67.9834C281.846 68.7451 289.615 69.9639 297.689 71.6396C305.764 73.3154 312.962 76.1719 319.284 80.209C330.71 87.4453 336.423 98.2617 336.423 112.658C336.423 129.645 328.768 141.794 313.457 149.106C298.223 156.419 283.56 160.189 269.468 160.418Z" fill="url(#paint7_linear_280_982)"/>
<defs>
<linearGradient id="paint0_linear_280_982" x1="588.403" y1="23.3828" x2="545.644" y2="326.535" gradientUnits="userSpaceOnUse">
<stop stop-color="#BA49FD"/>
<stop offset="0.842062" stop-color="#6A1A99"/>
</linearGradient>
<linearGradient id="paint1_linear_280_982" x1="588.403" y1="23.3828" x2="545.644" y2="326.535" gradientUnits="userSpaceOnUse">
<stop stop-color="#BA49FD"/>
<stop offset="0.842062" stop-color="#6A1A99"/>
</linearGradient>
<linearGradient id="paint2_linear_280_982" x1="588.403" y1="23.3828" x2="545.644" y2="326.535" gradientUnits="userSpaceOnUse">
<stop stop-color="#BA49FD"/>
<stop offset="0.842062" stop-color="#6A1A99"/>
</linearGradient>
<linearGradient id="paint3_linear_280_982" x1="588.403" y1="23.3828" x2="545.644" y2="326.535" gradientUnits="userSpaceOnUse">
<stop stop-color="#BA49FD"/>
<stop offset="0.842062" stop-color="#6A1A99"/>
</linearGradient>
<linearGradient id="paint4_linear_280_982" x1="588.403" y1="23.3828" x2="545.644" y2="326.535" gradientUnits="userSpaceOnUse">
<stop stop-color="#BA49FD"/>
<stop offset="0.842062" stop-color="#6A1A99"/>
</linearGradient>
<linearGradient id="paint5_linear_280_982" x1="588.403" y1="23.3828" x2="545.644" y2="326.535" gradientUnits="userSpaceOnUse">
<stop stop-color="#BA49FD"/>
<stop offset="0.842062" stop-color="#6A1A99"/>
</linearGradient>
<linearGradient id="paint6_linear_280_982" x1="588.403" y1="23.3828" x2="545.644" y2="326.535" gradientUnits="userSpaceOnUse">
<stop stop-color="#BA49FD"/>
<stop offset="0.842062" stop-color="#6A1A99"/>
</linearGradient>
<linearGradient id="paint7_linear_280_982" x1="588.403" y1="23.3828" x2="545.644" y2="326.535" gradientUnits="userSpaceOnUse">
<stop stop-color="#BA49FD"/>
<stop offset="0.842062" stop-color="#6A1A99"/>
</linearGradient>
</defs>
</svg>
